<?xml version="1.0" encoding="UTF-8"?>
<svg xmlns="http://www.w3.org/2000/svg" viewBox="0 0 900 500" width="900" height="500">
  <defs>
    <linearGradient id="cardBlue" x1="0%" y1="0%" x2="0%" y2="100%">
      <stop offset="0%" style="stop-color:#2c5a82"/>
      <stop offset="100%" style="stop-color:#2c5a82"/>
    </linearGradient>
    <linearGradient id="cardRevealed" x1="0%" y1="0%" x2="0%" y2="100%">
      <stop offset="0%" style="stop-color:#a07c1d"/>
      <stop offset="100%" style="stop-color:#a07c1d"/>
    </linearGradient>
    <linearGradient id="cardMatched" x1="0%" y1="0%" x2="0%" y2="100%">
      <stop offset="0%" style="stop-color:#2c6a5b"/>
      <stop offset="100%" style="stop-color:#1e8449"/>
    </linearGradient>
    <marker id="arrow" markerWidth="10" markerHeight="7" refX="9" refY="3.5" orient="auto">
      <polygon points="0 0, 10 3.5, 0 7" fill="#6a3d75"/>
    </marker>
    <style>
      .title { font-family:inherit; font-size: 18px; font-weight: bold; fill: #14202e; direction: rtl; }
      .turn-label { font-family:inherit; font-size: 14px; font-weight: bold; fill: #6a3d75; direction: rtl; }
      .card-text { font-family:inherit; font-size: 16px; font-weight: bold; fill: white; }
      .position { font-family:inherit; font-size: 9px; fill: #7f8c8d; direction: rtl; }
      .memory-title { font-family:inherit; font-size: 11px; font-weight: bold; fill: #14202e; direction: rtl; }
      .memory-text { font-family:inherit; font-size: 10px; fill: #14202e; direction: rtl; }
      .action { font-family:inherit; font-size: 11px; fill: #2c6a5b; font-style: italic; direction: rtl; }
      .result { font-family:inherit; font-size: 12px; font-weight: bold; fill: #b15c26; direction: rtl; }
      .success { font-family:inherit; font-size: 12px; font-weight: bold; fill: #2c6a5b; direction: rtl; }
    </style>
  </defs>

  <!-- Main Title -->
  <text x="450" y="30" text-anchor="middle" class="title">شرح الدالة التوجيهية بالذاكرة</text>

  <!-- TURN 3 (rightmost in RTL - shown first) -->
  <g transform="translate(600, 50)">
    <text x="130" y="15" text-anchor="middle" class="turn-label">الدور ٣: استخدم الذاكرة!</text>

    <!-- Cards Row 1 -->
    <rect x="20" y="30" width="50" height="65" rx="5" fill="url(#cardBlue)" stroke="#2c5a82" stroke-width="1"/>
    <text x="45" y="70" text-anchor="middle" class="card-text">?</text>
    <text x="45" y="105" text-anchor="middle" class="position">م٤</text>

    <rect x="80" y="30" width="50" height="65" rx="5" fill="url(#cardBlue)" stroke="#2c5a82" stroke-width="1"/>
    <text x="105" y="70" text-anchor="middle" class="card-text">?</text>
    <text x="105" y="105" text-anchor="middle" class="position">م٣</text>

    <rect x="140" y="30" width="50" height="65" rx="5" fill="url(#cardBlue)" stroke="#2c5a82" stroke-width="1"/>
    <text x="165" y="70" text-anchor="middle" class="card-text">?</text>
    <text x="165" y="105" text-anchor="middle" class="position">م٢</text>

    <rect x="200" y="30" width="50" height="65" rx="5" fill="url(#cardMatched)" stroke="#1e8449" stroke-width="2"/>
    <text x="225" y="70" text-anchor="middle" class="card-text">7</text>
    <text x="225" y="105" text-anchor="middle" class="position">م١</text>

    <!-- Cards Row 2 -->
    <rect x="20" y="120" width="50" height="65" rx="5" fill="url(#cardBlue)" stroke="#2c5a82" stroke-width="1"/>
    <text x="45" y="160" text-anchor="middle" class="card-text">?</text>
    <text x="45" y="195" text-anchor="middle" class="position">م٨</text>

    <rect x="80" y="120" width="50" height="65" rx="5" fill="url(#cardBlue)" stroke="#2c5a82" stroke-width="1"/>
    <text x="105" y="160" text-anchor="middle" class="card-text">?</text>
    <text x="105" y="195" text-anchor="middle" class="position">م٧</text>

    <rect x="140" y="120" width="50" height="65" rx="5" fill="url(#cardBlue)" stroke="#2c5a82" stroke-width="1"/>
    <text x="165" y="160" text-anchor="middle" class="card-text">?</text>
    <text x="165" y="195" text-anchor="middle" class="position">م٦</text>

    <rect x="200" y="120" width="50" height="65" rx="5" fill="url(#cardMatched)" stroke="#1e8449" stroke-width="2"/>
    <text x="225" y="160" text-anchor="middle" class="card-text">7</text>
    <text x="225" y="195" text-anchor="middle" class="position">م٥</text>

    <!-- Result -->
    <text x="130" y="220" text-anchor="middle" class="success">تطابق! نجحت الدالة التوجيهية!</text>
  </g>

  <!-- TURN 2 -->
  <g transform="translate(310, 50)">
    <text x="130" y="15" text-anchor="middle" class="turn-label">الدور ٢: اقلب الموقعين ٣ و ٥</text>

    <!-- Cards Row 1 -->
    <rect x="20" y="30" width="50" height="65" rx="5" fill="url(#cardBlue)" stroke="#2c5a82" stroke-width="1"/>
    <text x="45" y="70" text-anchor="middle" class="card-text">?</text>
    <text x="45" y="105" text-anchor="middle" class="position">م٤</text>

    <rect x="80" y="30" width="50" height="65" rx="5" fill="url(#cardRevealed)" stroke="#d35400" stroke-width="2"/>
    <text x="105" y="70" text-anchor="middle" class="card-text">8</text>
    <text x="105" y="105" text-anchor="middle" class="position">م٣</text>

    <rect x="140" y="30" width="50" height="65" rx="5" fill="url(#cardBlue)" stroke="#2c5a82" stroke-width="1"/>
    <text x="165" y="70" text-anchor="middle" class="card-text">?</text>
    <text x="165" y="105" text-anchor="middle" class="position">م٢</text>

    <rect x="200" y="30" width="50" height="65" rx="5" fill="url(#cardBlue)" stroke="#2c5a82" stroke-width="1"/>
    <text x="225" y="70" text-anchor="middle" class="card-text">?</text>
    <text x="225" y="105" text-anchor="middle" class="position">م١</text>

    <!-- Cards Row 2 -->
    <rect x="20" y="120" width="50" height="65" rx="5" fill="url(#cardBlue)" stroke="#2c5a82" stroke-width="1"/>
    <text x="45" y="160" text-anchor="middle" class="card-text">?</text>
    <text x="45" y="195" text-anchor="middle" class="position">م٨</text>

    <rect x="80" y="120" width="50" height="65" rx="5" fill="url(#cardBlue)" stroke="#2c5a82" stroke-width="1"/>
    <text x="105" y="160" text-anchor="middle" class="card-text">?</text>
    <text x="105" y="195" text-anchor="middle" class="position">م٧</text>

    <rect x="140" y="120" width="50" height="65" rx="5" fill="url(#cardBlue)" stroke="#2c5a82" stroke-width="1"/>
    <text x="165" y="160" text-anchor="middle" class="card-text">?</text>
    <text x="165" y="195" text-anchor="middle" class="position">م٦</text>

    <rect x="200" y="120" width="50" height="65" rx="5" fill="url(#cardRevealed)" stroke="#d35400" stroke-width="2"/>
    <text x="225" y="160" text-anchor="middle" class="card-text">7</text>
    <text x="225" y="195" text-anchor="middle" class="position">م٥</text>

    <!-- Memory & Result -->
    <text x="130" y="220" text-anchor="middle" class="action">م٥=٧... لحظة! م١ كان ٧ أيضاً!</text>
    <text x="130" y="240" text-anchor="middle" class="memory-title">الذاكرة: م١=٧، م٥=٧، م٣=٨، م٦=٩</text>
  </g>

  <!-- TURN 1 (leftmost in RTL - shown last) -->
  <g transform="translate(20, 50)">
    <text x="130" y="15" text-anchor="middle" class="turn-label">الدور ١: اقلب الموقعين ١ و ٦</text>

    <!-- Cards Row 1 -->
    <rect x="20" y="30" width="50" height="65" rx="5" fill="url(#cardBlue)" stroke="#2c5a82" stroke-width="1"/>
    <text x="45" y="70" text-anchor="middle" class="card-text">?</text>
    <text x="45" y="105" text-anchor="middle" class="position">م٤</text>

    <rect x="80" y="30" width="50" height="65" rx="5" fill="url(#cardBlue)" stroke="#2c5a82" stroke-width="1"/>
    <text x="105" y="70" text-anchor="middle" class="card-text">?</text>
    <text x="105" y="105" text-anchor="middle" class="position">م٣</text>

    <rect x="140" y="30" width="50" height="65" rx="5" fill="url(#cardBlue)" stroke="#2c5a82" stroke-width="1"/>
    <text x="165" y="70" text-anchor="middle" class="card-text">?</text>
    <text x="165" y="105" text-anchor="middle" class="position">م٢</text>

    <rect x="200" y="30" width="50" height="65" rx="5" fill="url(#cardRevealed)" stroke="#d35400" stroke-width="2"/>
    <text x="225" y="70" text-anchor="middle" class="card-text">7</text>
    <text x="225" y="105" text-anchor="middle" class="position">م١</text>

    <!-- Cards Row 2 -->
    <rect x="20" y="120" width="50" height="65" rx="5" fill="url(#cardBlue)" stroke="#2c5a82" stroke-width="1"/>
    <text x="45" y="160" text-anchor="middle" class="card-text">?</text>
    <text x="45" y="195" text-anchor="middle" class="position">م٨</text>

    <rect x="80" y="120" width="50" height="65" rx="5" fill="url(#cardBlue)" stroke="#2c5a82" stroke-width="1"/>
    <text x="105" y="160" text-anchor="middle" class="card-text">?</text>
    <text x="105" y="195" text-anchor="middle" class="position">م٧</text>

    <rect x="140" y="120" width="50" height="65" rx="5" fill="url(#cardRevealed)" stroke="#d35400" stroke-width="2"/>
    <text x="165" y="160" text-anchor="middle" class="card-text">9</text>
    <text x="165" y="195" text-anchor="middle" class="position">م٦</text>

    <rect x="200" y="120" width="50" height="65" rx="5" fill="url(#cardBlue)" stroke="#2c5a82" stroke-width="1"/>
    <text x="225" y="160" text-anchor="middle" class="card-text">?</text>
    <text x="225" y="195" text-anchor="middle" class="position">م٥</text>

    <!-- Memory & Result -->
    <text x="130" y="220" text-anchor="middle" class="result">لا تطابق!</text>
    <text x="130" y="240" text-anchor="middle" class="memory-title">الذاكرة: م١=٧، م٦=٩</text>
  </g>

  <!-- Arrows between panels (LTR: from Turn 1 to Turn 2 to Turn 3) -->
  <path d="M 275 150 L 295 150" stroke="#6a3d75" stroke-width="3" fill="none" marker-end="url(#arrow)"/>
  <path d="M 565 150 L 585 150" stroke="#6a3d75" stroke-width="3" fill="none" marker-end="url(#arrow)"/>

  <!-- Bottom Summary -->
  <rect x="50" y="290" width="800" height="80" rx="10" fill="#e8f8f5" stroke="#2c6a5b" stroke-width="2"/>
  <text x="450" y="320" text-anchor="middle" class="title" style="fill:#2c6a5b">الفكرة الأساسية: الذاكرة كدالة توجيهية</text>
  <text x="450" y="345" text-anchor="middle" class="memory-text">بتذكر ما رأيناه، يمكننا اتخاذ قرارات مدروسة بدلاً من التخمين العشوائي.</text>
  <text x="450" y="360" text-anchor="middle" class="memory-text">هذا يقلل متوسط الأدوار من ٨-١٠ (عشوائي) إلى ٥-٦ (موجه بالذاكرة)!</text>
</svg>
