<?xml version="1.0" encoding="UTF-8"?>
<svg xmlns="http://www.w3.org/2000/svg" viewBox="0 0 800 350" width="800" height="350">
  <defs>
    <marker id="arrowhead" markerWidth="10" markerHeight="7" refX="9" refY="3.5" orient="auto">
      <polygon points="0 0, 10 3.5, 0 7" fill="#14202e"/>
    </marker>
    <linearGradient id="kitchenGrad" x1="0%" y1="0%" x2="0%" y2="100%">
      <stop offset="0%" style="stop-color:#fff3cd;stop-opacity:0.3"/>
      <stop offset="100%" style="stop-color:#a07c1d;stop-opacity:0.2"/>
    </linearGradient>
  </defs>

  <!-- Kitchen container -->
  <rect x="30" y="20" width="740" height="310" rx="15" fill="url(#kitchenGrad)" stroke="#a07c1d" stroke-width="3"/>
  <text x="400" y="55" font-family="Arial, sans-serif" font-size="20" font-weight="bold" fill="#14202e" text-anchor="middle">مطبخ المطعم</text>

  <!-- Customer order -->
  <text x="400" y="85" font-family="Arial, sans-serif" font-size="13" fill="#666" text-anchor="middle" font-style="italic">"أريد سلطة، ثم شوربة (باستخدام وعاء السلطة)، ثم الطبق الرئيسي"</text>

  <!-- Station boxes -->
  <!-- Salad Station -->
  <rect x="80" y="120" width="180" height="140" rx="10" fill="white" stroke="#2c6a5b" stroke-width="2"/>
  <rect x="80" y="120" width="180" height="35" rx="10" fill="#2c6a5b"/>
  <rect x="80" y="145" width="180" height="5" fill="#2c6a5b"/>
  <text x="170" y="145" font-family="Arial, sans-serif" font-size="16" font-weight="bold" fill="white" text-anchor="middle">محطة السلطة</text>
  <text x="170" y="185" font-family="Arial, sans-serif" font-size="13" fill="#333" text-anchor="middle">تذكرة: #1</text>
  <text x="170" y="210" font-family="Arial, sans-serif" font-size="11" fill="#666" text-anchor="middle">(تبدأ فوراً)</text>

  <!-- Arrow 1 -->
  <line x1="260" y1="190" x2="310" y2="190" stroke="#14202e" stroke-width="3" marker-end="url(#arrowhead)"/>

  <!-- Soup Station -->
  <rect x="310" y="120" width="180" height="140" rx="10" fill="white" stroke="#2c5a82" stroke-width="2"/>
  <rect x="310" y="120" width="180" height="35" rx="10" fill="#2c5a82"/>
  <rect x="310" y="145" width="180" height="5" fill="#2c5a82"/>
  <text x="400" y="145" font-family="Arial, sans-serif" font-size="16" font-weight="bold" fill="white" text-anchor="middle">محطة الشوربة</text>
  <text x="400" y="185" font-family="Arial, sans-serif" font-size="13" fill="#333" text-anchor="middle">تذكرة: #2</text>
  <text x="400" y="210" font-family="Arial, sans-serif" font-size="11" fill="#b15c26" text-anchor="middle">(تنتظر #1 أولاً!)</text>

  <!-- Arrow 2 -->
  <line x1="490" y1="190" x2="540" y2="190" stroke="#14202e" stroke-width="3" marker-end="url(#arrowhead)"/>

  <!-- Main Station -->
  <rect x="540" y="120" width="180" height="140" rx="10" fill="white" stroke="#b15c26" stroke-width="2"/>
  <rect x="540" y="120" width="180" height="35" rx="10" fill="#b15c26"/>
  <rect x="540" y="145" width="180" height="5" fill="#b15c26"/>
  <text x="630" y="145" font-family="Arial, sans-serif" font-size="16" font-weight="bold" fill="white" text-anchor="middle">المحطة الرئيسية</text>
  <text x="630" y="185" font-family="Arial, sans-serif" font-size="13" fill="#333" text-anchor="middle">تذكرة: #3</text>
  <text x="630" y="210" font-family="Arial, sans-serif" font-size="11" fill="#b15c26" text-anchor="middle">(تنتظر #2 أولاً!)</text>

  <!-- Flow arrows below -->
  <line x1="170" y1="260" x2="170" y2="290" stroke="#2c6a5b" stroke-width="2" marker-end="url(#arrowhead)"/>
  <line x1="400" y1="260" x2="400" y2="290" stroke="#2c5a82" stroke-width="2" marker-end="url(#arrowhead)"/>
  <line x1="630" y1="260" x2="630" y2="290" stroke="#b15c26" stroke-width="2" marker-end="url(#arrowhead)"/>

  <!-- Results -->
  <text x="170" y="310" font-family="Arial, sans-serif" font-size="12" fill="#2c6a5b" text-anchor="middle" font-weight="bold">السلطة جاهزة</text>
  <line x1="210" y1="305" x2="360" y2="305" stroke="#666" stroke-width="1" stroke-dasharray="5,3" marker-end="url(#arrowhead)"/>
  <text x="400" y="310" font-family="Arial, sans-serif" font-size="12" fill="#2c5a82" text-anchor="middle" font-weight="bold">الشوربة جاهزة</text>
  <text x="400" y="325" font-family="Arial, sans-serif" font-size="10" fill="#666" text-anchor="middle">(تعيد استخدام الوعاء)</text>
  <line x1="440" y1="305" x2="590" y2="305" stroke="#666" stroke-width="1" stroke-dasharray="5,3" marker-end="url(#arrowhead)"/>
  <text x="630" y="310" font-family="Arial, sans-serif" font-size="12" fill="#b15c26" text-anchor="middle" font-weight="bold">الطبق الرئيسي جاهز!</text>
</svg>