<?xml version="1.0" encoding="UTF-8"?>
<svg xmlns="http://www.w3.org/2000/svg" viewBox="0 0 800 650">
  <defs>
    <style>
      .title { font-family:inherit; font-size: 20px; font-weight: bold; fill: #14202e; }
      .subtitle { font-family:inherit; font-size: 14px; fill: #7f8c8d; }
      .section-title { font-family:inherit; font-size: 16px; font-weight: bold; fill: #fff; }
      .label { font-family:inherit; font-size: 12px; fill: #14202e; }
      .small-label { font-family:inherit; font-size: 10px; fill: #7f8c8d; }
      .floor-label { font-family:inherit; font-size: 9px; fill: #fff; font-weight: bold; }
      .highlight { font-family:inherit; font-size: 14px; font-weight: bold; }
      .pro { fill: #2c6a5b; }
      .con { fill: #b15c26; }
    </style>
    <marker id="orangearrow" markerWidth="10" markerHeight="7" refX="9" refY="3.5" orient="auto">
      <polygon points="0 0, 10 3.5, 0 7" fill="#f59e0b"/>
    </marker>
    <marker id="bluearrow" markerWidth="10" markerHeight="7" refX="9" refY="3.5" orient="auto">
      <polygon points="0 0, 10 3.5, 0 7" fill="#3b82f6"/>
    </marker>
  </defs>

  <!-- Title -->
  <text x="400" y="30" text-anchor="middle" class="title">Scaling Strategies</text>
  <text x="400" y="50" text-anchor="middle" class="subtitle">How to handle more work?</text>

  <!-- Vertical Scaling (Scale Up) - Left Side -->
  <rect x="30" y="70" width="350" height="560" rx="10" fill="#fef3c7" stroke="#fcd34d" stroke-width="2"/>
  <rect x="30" y="70" width="350" height="40" rx="10" fill="#f59e0b"/>
  <text x="205" y="97" text-anchor="middle" class="section-title">Scale UP (Vertical)</text>

  <!-- Ground for vertical section -->
  <rect x="50" y="440" width="310" height="8" fill="#86efac" rx="2"/>

  <!-- Small Building (Before) -->
  <g transform="translate(80, 350)">
    <!-- Building body -->
    <rect x="0" y="0" width="50" height="90" fill="#94a3b8" stroke="#64748b" stroke-width="2"/>
    <!-- Roof -->
    <polygon points="-5,0 25,-15 55,0" fill="#64748b"/>
    <!-- Windows Floor 2 -->
    <rect x="8" y="10" width="12" height="15" fill="#60a5fa" rx="1"/>
    <rect x="30" y="10" width="12" height="15" fill="#60a5fa" rx="1"/>
    <!-- Windows Floor 1 -->
    <rect x="8" y="45" width="12" height="15" fill="#60a5fa" rx="1"/>
    <rect x="30" y="45" width="12" height="15" fill="#60a5fa" rx="1"/>
    <!-- Door -->
    <rect x="18" y="70" width="14" height="20" fill="#475569" rx="1"/>
    <!-- Floor labels -->
    <text x="55" y="22" class="floor-label" style="fill: #475569;">2</text>
    <text x="55" y="57" class="floor-label" style="fill: #475569;">1</text>
  </g>
  <text x="105" y="465" text-anchor="middle" class="small-label">2-Story</text>
  <text x="105" y="478" text-anchor="middle" class="small-label">Building</text>

  <!-- Arrow -->
  <path d="M 155 400 L 195 400" stroke="#f59e0b" stroke-width="4" fill="none" marker-end="url(#orangearrow)"/>

  <!-- Tall Building (After) - Skyscraper -->
  <g transform="translate(220, 220)">
    <!-- Building body - taller and slightly wider -->
    <rect x="0" y="0" width="70" height="200" fill="#94a3b8" stroke="#64748b" stroke-width="2"/>
    <!-- Spire on top -->
    <polygon points="35,-25 30,0 40,0" fill="#64748b"/>
    <!-- Windows - 6 floors -->
    <!-- Floor 6 -->
    <rect x="10" y="10" width="15" height="18" fill="#60a5fa" rx="1"/>
    <rect x="45" y="10" width="15" height="18" fill="#60a5fa" rx="1"/>
    <!-- Floor 5 -->
    <rect x="10" y="40" width="15" height="18" fill="#60a5fa" rx="1"/>
    <rect x="45" y="40" width="15" height="18" fill="#60a5fa" rx="1"/>
    <!-- Floor 4 -->
    <rect x="10" y="70" width="15" height="18" fill="#60a5fa" rx="1"/>
    <rect x="45" y="70" width="15" height="18" fill="#60a5fa" rx="1"/>
    <!-- Floor 3 -->
    <rect x="10" y="100" width="15" height="18" fill="#60a5fa" rx="1"/>
    <rect x="45" y="100" width="15" height="18" fill="#60a5fa" rx="1"/>
    <!-- Floor 2 -->
    <rect x="10" y="130" width="15" height="18" fill="#60a5fa" rx="1"/>
    <rect x="45" y="130" width="15" height="18" fill="#60a5fa" rx="1"/>
    <!-- Floor 1 -->
    <rect x="10" y="160" width="15" height="18" fill="#60a5fa" rx="1"/>
    <rect x="45" y="160" width="15" height="18" fill="#60a5fa" rx="1"/>
    <!-- Door -->
    <rect x="25" y="180" width="20" height="20" fill="#475569" rx="1"/>
    <!-- Floor labels on right side -->
    <text x="75" y="24" class="floor-label" style="fill: #475569;">6</text>
    <text x="75" y="54" class="floor-label" style="fill: #475569;">5</text>
    <text x="75" y="84" class="floor-label" style="fill: #475569;">4</text>
    <text x="75" y="114" class="floor-label" style="fill: #475569;">3</text>
    <text x="75" y="144" class="floor-label" style="fill: #475569;">2</text>
    <text x="75" y="174" class="floor-label" style="fill: #475569;">1</text>
  </g>
  <text x="255" y="465" text-anchor="middle" class="small-label">6-Story</text>
  <text x="255" y="478" text-anchor="middle" class="small-label">Skyscraper</text>

  <text x="205" y="505" text-anchor="middle" class="label">"Add more FLOORS to ONE building"</text>

  <!-- Pros/Cons for Vertical -->
  <text x="60" y="535" class="highlight pro">Pros:</text>
  <text x="60" y="553" class="label">Simple - one building to manage</text>
  <text x="60" y="570" class="label">Everything in one place</text>

  <text x="60" y="595" class="highlight con">Cons:</text>
  <text x="60" y="613" class="label">Expensive - stronger foundation needed</text>

  <!-- Horizontal Scaling (Scale Out) - Right Side -->
  <rect x="420" y="70" width="350" height="560" rx="10" fill="#dbeafe" stroke="#93c5fd" stroke-width="2"/>
  <rect x="420" y="70" width="350" height="40" rx="10" fill="#3b82f6"/>
  <text x="595" y="97" text-anchor="middle" class="section-title">Scale OUT (Horizontal)</text>

  <!-- Ground for horizontal section -->
  <rect x="440" y="440" width="310" height="8" fill="#86efac" rx="2"/>

  <!-- Single Building (Before) -->
  <g transform="translate(460, 350)">
    <rect x="0" y="0" width="50" height="90" fill="#94a3b8" stroke="#64748b" stroke-width="2"/>
    <polygon points="-5,0 25,-15 55,0" fill="#64748b"/>
    <rect x="8" y="10" width="12" height="15" fill="#60a5fa" rx="1"/>
    <rect x="30" y="10" width="12" height="15" fill="#60a5fa" rx="1"/>
    <rect x="8" y="45" width="12" height="15" fill="#60a5fa" rx="1"/>
    <rect x="30" y="45" width="12" height="15" fill="#60a5fa" rx="1"/>
    <rect x="18" y="70" width="14" height="20" fill="#475569" rx="1"/>
  </g>
  <text x="485" y="465" text-anchor="middle" class="small-label">1 Building</text>

  <!-- Arrow -->
  <path d="M 530 400 L 570 400" stroke="#3b82f6" stroke-width="4" fill="none" marker-end="url(#bluearrow)"/>

  <!-- Multiple Buildings (After) - Campus -->
  <!-- Building 1 -->
  <g transform="translate(585, 365)">
    <rect x="0" y="0" width="40" height="75" fill="#94a3b8" stroke="#64748b" stroke-width="1.5"/>
    <polygon points="-3,0 20,-10 43,0" fill="#64748b"/>
    <rect x="6" y="8" width="10" height="12" fill="#60a5fa" rx="1"/>
    <rect x="24" y="8" width="10" height="12" fill="#60a5fa" rx="1"/>
    <rect x="6" y="35" width="10" height="12" fill="#60a5fa" rx="1"/>
    <rect x="24" y="35" width="10" height="12" fill="#60a5fa" rx="1"/>
    <rect x="14" y="58" width="12" height="17" fill="#475569" rx="1"/>
  </g>
  <!-- Building 2 -->
  <g transform="translate(640, 365)">
    <rect x="0" y="0" width="40" height="75" fill="#94a3b8" stroke="#64748b" stroke-width="1.5"/>
    <polygon points="-3,0 20,-10 43,0" fill="#64748b"/>
    <rect x="6" y="8" width="10" height="12" fill="#60a5fa" rx="1"/>
    <rect x="24" y="8" width="10" height="12" fill="#60a5fa" rx="1"/>
    <rect x="6" y="35" width="10" height="12" fill="#60a5fa" rx="1"/>
    <rect x="24" y="35" width="10" height="12" fill="#60a5fa" rx="1"/>
    <rect x="14" y="58" width="12" height="17" fill="#475569" rx="1"/>
  </g>
  <!-- Building 3 -->
  <g transform="translate(695, 365)">
    <rect x="0" y="0" width="40" height="75" fill="#94a3b8" stroke="#64748b" stroke-width="1.5"/>
    <polygon points="-3,0 20,-10 43,0" fill="#64748b"/>
    <rect x="6" y="8" width="10" height="12" fill="#60a5fa" rx="1"/>
    <rect x="24" y="8" width="10" height="12" fill="#60a5fa" rx="1"/>
    <rect x="6" y="35" width="10" height="12" fill="#60a5fa" rx="1"/>
    <rect x="24" y="35" width="10" height="12" fill="#60a5fa" rx="1"/>
    <rect x="14" y="58" width="12" height="17" fill="#475569" rx="1"/>
  </g>

  <!-- Connecting roads (network) -->
  <line x1="625" y1="445" x2="660" y2="445" stroke="#475569" stroke-width="3" stroke-dasharray="4,2"/>
  <line x1="680" y1="445" x2="715" y2="445" stroke="#475569" stroke-width="3" stroke-dasharray="4,2"/>

  <text x="680" y="470" text-anchor="middle" class="small-label">Multiple Buildings</text>
  <text x="680" y="483" text-anchor="middle" class="small-label">(Campus)</text>

  <text x="595" y="505" text-anchor="middle" class="label">"Build MORE buildings"</text>

  <!-- Pros/Cons for Horizontal -->
  <text x="450" y="535" class="highlight pro">Pros:</text>
  <text x="450" y="553" class="label">Unlimited growth - keep adding buildings</text>
  <text x="450" y="570" class="label">Cheaper per building</text>

  <text x="450" y="595" class="highlight con">Cons:</text>
  <text x="450" y="613" class="label">Need coordination (roads between buildings)</text>

</svg>
