<?xml version="1.0" encoding="UTF-8"?>
<svg xmlns="http://www.w3.org/2000/svg" viewBox="0 0 500 420">
  <defs>
    <style>
      .title { font-family:inherit; font-size: 18px; font-weight: bold; fill: #14202e; }
      .layer-title { font-family:inherit; font-size: 14px; font-weight: bold; fill: #fff; }
      .layer-desc { font-family:inherit; font-size: 10px; fill: rgba(255,255,255,0.9); }
      .side-label { font-family:inherit; font-size: 10px; fill: #7f8c8d; }
      .bracket-text { font-family:inherit; font-size: 11px; fill: #14202e; }
    </style>
  </defs>

  <!-- Title -->
  <text x="250" y="30" text-anchor="middle" class="title">Semantic Web Technology Stack</text>

  <!-- Layer 5: SPARQL (Queries) - Top -->
  <rect x="100" y="55" width="300" height="55" rx="8" fill="#6a3d75" stroke="#7d3c98" stroke-width="2"/>
  <text x="250" y="80" text-anchor="middle" class="layer-title">QUERIES</text>
  <text x="250" y="98" text-anchor="middle" class="layer-desc">(SPARQL)</text>

  <!-- Layer 4: OWL/SWRL (Ontologies) -->
  <rect x="100" y="120" width="300" height="55" rx="8" fill="#b15c26" stroke="#b15c26" stroke-width="2"/>
  <text x="250" y="145" text-anchor="middle" class="layer-title">ONTOLOGIES</text>
  <text x="250" y="163" text-anchor="middle" class="layer-desc">(OWL / SWRL)</text>

  <!-- Layer 3: RDFS (Schemas) -->
  <rect x="100" y="185" width="300" height="55" rx="8" fill="#a07c1d" stroke="#d68910" stroke-width="2"/>
  <text x="250" y="210" text-anchor="middle" class="layer-title">SCHEMAS</text>
  <text x="250" y="228" text-anchor="middle" class="layer-desc">(RDFS - Classes, Properties)</text>

  <!-- Layer 2: RDF (Data) -->
  <rect x="100" y="250" width="300" height="55" rx="8" fill="#2c5a82" stroke="#2c5a82" stroke-width="2"/>
  <text x="250" y="275" text-anchor="middle" class="layer-title">DATA</text>
  <text x="250" y="293" text-anchor="middle" class="layer-desc">(RDF - Subject-Predicate-Object Triples)</text>

  <!-- Layer 1: URIs (Identifiers) - Bottom -->
  <rect x="100" y="315" width="300" height="55" rx="8" fill="#2c6a5b" stroke="#1e8449" stroke-width="2"/>
  <text x="250" y="340" text-anchor="middle" class="layer-title">IDENTIFIERS</text>
  <text x="250" y="358" text-anchor="middle" class="layer-desc">(URIs - Uniform Resource Identifiers)</text>

  <!-- Left side bracket and label: "Rules" -->
  <path d="M 85 120 L 75 120 L 75 175 L 85 175" stroke="#7f8c8d" stroke-width="2" fill="none"/>
  <text x="55" y="152" text-anchor="middle" class="side-label" style="writing-mode: vertical-rl; transform: rotate(180deg); transform-origin: 55px 152px;">Rules/Schema</text>

  <!-- Right side bracket and label: "Data" -->
  <path d="M 415 250 L 425 250 L 425 370 L 415 370" stroke="#7f8c8d" stroke-width="2" fill="none"/>
  <text x="445" y="310" text-anchor="middle" class="side-label">Data Layer</text>

  <!-- Bottom legend -->
  <rect x="100" y="385" width="300" height="25" rx="4" fill="#f8f9fa" stroke="#d6cdb8" stroke-width="1"/>
  <text x="250" y="402" text-anchor="middle" class="side-label">Each layer builds upon the one below</text>

  <!-- Connecting lines between layers (subtle) -->
  <line x1="250" y1="110" x2="250" y2="120" stroke="#d6cdb8" stroke-width="1"/>
  <line x1="250" y1="175" x2="250" y2="185" stroke="#d6cdb8" stroke-width="1"/>
  <line x1="250" y1="240" x2="250" y2="250" stroke="#d6cdb8" stroke-width="1"/>
  <line x1="250" y1="305" x2="250" y2="315" stroke="#d6cdb8" stroke-width="1"/>

</svg>
