<?xml version="1.0" encoding="UTF-8"?>
<svg xmlns="http://www.w3.org/2000/svg" viewBox="0 0 650 380" width="650" height="380">
  <defs>
    <marker id="arrowhead" markerWidth="10" markerHeight="7" refX="9" refY="3.5" orient="auto">
      <polygon points="0 0, 10 3.5, 0 7" fill="#14202e"/>
    </marker>
    <linearGradient id="storeGrad" x1="0%" y1="0%" x2="100%" y2="0%">
      <stop offset="0%" style="stop-color:#6a3d75;stop-opacity:0.2"/>
      <stop offset="100%" style="stop-color:#6a3d75;stop-opacity:0.3"/>
    </linearGradient>
  </defs>

  <!-- Title -->
  <text x="325" y="30" font-family="Arial, sans-serif" font-size="16" font-weight="bold" fill="#14202e" text-anchor="middle">النمط 2: مخزن الكائنات الموزع (Ray)</text>

  <!-- Object Store container -->
  <rect x="50" y="50" width="550" height="90" rx="10" fill="url(#storeGrad)" stroke="#6a3d75" stroke-width="2"/>
  <text x="325" y="75" font-family="Arial, sans-serif" font-size="14" fill="#14202e" text-anchor="middle" font-weight="bold">مخزن الكائنات الموزع</text>

  <!-- Future result boxes -->
  <rect x="80" y="90" width="70" height="35" rx="5" fill="white" stroke="#6a3d75" stroke-width="1"/>
  <text x="115" y="103" font-family="Arial, sans-serif" font-size="10" fill="#14202e" text-anchor="middle">f1</text>
  <text x="115" y="118" font-family="Arial, sans-serif" font-size="9" fill="#666" text-anchor="middle">النتيجة</text>

  <rect x="170" y="90" width="70" height="35" rx="5" fill="white" stroke="#6a3d75" stroke-width="1"/>
  <text x="205" y="103" font-family="Arial, sans-serif" font-size="10" fill="#14202e" text-anchor="middle">f2</text>
  <text x="205" y="118" font-family="Arial, sans-serif" font-size="9" fill="#666" text-anchor="middle">النتيجة</text>

  <rect x="260" y="90" width="70" height="35" rx="5" fill="white" stroke="#6a3d75" stroke-width="1"/>
  <text x="295" y="103" font-family="Arial, sans-serif" font-size="10" fill="#14202e" text-anchor="middle">f3</text>
  <text x="295" y="118" font-family="Arial, sans-serif" font-size="9" fill="#666" text-anchor="middle">النتيجة</text>

  <rect x="350" y="90" width="70" height="35" rx="5" fill="white" stroke="#6a3d75" stroke-width="1"/>
  <text x="385" y="103" font-family="Arial, sans-serif" font-size="10" fill="#14202e" text-anchor="middle">f4</text>
  <text x="385" y="118" font-family="Arial, sans-serif" font-size="9" fill="#666" text-anchor="middle">النتيجة</text>

  <rect x="440" y="90" width="70" height="35" rx="5" fill="white" stroke="#6a3d75" stroke-width="1"/>
  <text x="475" y="103" font-family="Arial, sans-serif" font-size="10" fill="#14202e" text-anchor="middle">...</text>

  <!-- Arrows up from workers -->
  <line x1="115" y1="140" x2="115" y2="185" stroke="#6a3d75" stroke-width="2"/>
  <line x1="325" y1="140" x2="325" y2="185" stroke="#6a3d75" stroke-width="2"/>
  <line x1="535" y1="140" x2="535" y2="185" stroke="#6a3d75" stroke-width="2"/>

  <!-- Worker boxes -->
  <rect x="55" y="185" width="120" height="50" rx="8" fill="#d6cdb8" stroke="#14202e" stroke-width="2"/>
  <text x="115" y="217" font-family="Arial, sans-serif" font-size="14" fill="#14202e" text-anchor="middle" font-weight="bold">العامل 1</text>

  <rect x="265" y="185" width="120" height="50" rx="8" fill="#d6cdb8" stroke="#14202e" stroke-width="2"/>
  <text x="325" y="217" font-family="Arial, sans-serif" font-size="14" fill="#14202e" text-anchor="middle" font-weight="bold">العامل 2</text>

  <rect x="475" y="185" width="120" height="50" rx="8" fill="#d6cdb8" stroke="#14202e" stroke-width="2"/>
  <text x="535" y="217" font-family="Arial, sans-serif" font-size="14" fill="#14202e" text-anchor="middle" font-weight="bold">العامل 3</text>

  <!-- Communication flow description -->
  <rect x="50" y="260" width="550" height="105" rx="8" fill="#e8f4fc" stroke="#2c5a82" stroke-width="1"/>
  <text x="580" y="285" font-family="Arial, sans-serif" font-size="13" fill="#14202e" font-weight="bold" text-anchor="end">عند اكتمال f1 على العامل 1:</text>

  <circle cx="570" cy="305" r="12" fill="#2c5a82"/>
  <text x="573" y="310" font-family="Arial, sans-serif" font-size="11" fill="white" text-anchor="middle">1</text>
  <text x="550" y="310" font-family="Arial, sans-serif" font-size="12" fill="#333" text-anchor="end">العامل 1 يخزن النتيجة في المخزن تحت "f1"</text>

  <circle cx="570" cy="330" r="12" fill="#2c6a5b"/>
  <text x="573" y="335" font-family="Arial, sans-serif" font-size="11" fill="white" text-anchor="middle">2</text>
  <text x="550" y="335" font-family="Arial, sans-serif" font-size="12" fill="#333" text-anchor="end">العامل 2 يحتاج f1 لـ f2؟ يجلبها من المخزن</text>

  <circle cx="570" cy="355" r="12" fill="#a07c1d"/>
  <text x="573" y="360" font-family="Arial, sans-serif" font-size="11" fill="white" text-anchor="middle">3</text>
  <text x="550" y="360" font-family="Arial, sans-serif" font-size="12" fill="#333" text-anchor="end">إذا كانت f1 على نفس العقدة: نسخ صفري!</text>
</svg>